<?xml version="1.0" encoding="UTF-8" standalone="no"?>
<svg
   xmlns:dc="http://purl.org/dc/elements/1.1/"
   xmlns:cc="http://creativecommons.org/ns#"
   xmlns:rdf="http://www.w3.org/1999/02/22-rdf-syntax-ns#"
   xmlns:svg="http://www.w3.org/2000/svg"
   xmlns="http://www.w3.org/2000/svg"
   xml:space="preserve"
   style="enable-background:new 0 0 300 300;"
   viewBox="0 0 300 300"
   y="0px"
   x="0px"
   id="svg8"
   version="1.1"><metadata
   id="metadata19"><rdf:RDF><cc:Work
       rdf:about=""><dc:format>image/svg+xml</dc:format><dc:type
         rdf:resource="http://purl.org/dc/dcmitype/StillImage" /><dc:title></dc:title></cc:Work></rdf:RDF></metadata><defs
   id="defs17" />
<style
   id="style2"
   type="text/css">
	.st0{fill:#E5E5E5;}
	.st1{fill:#F6C32E;}
	.st2{fill:#FFFFFF;}
</style>
<path
   style="fill:#f0c23f;fill-opacity:1"
   id="path12"
   d="M 135.90039 30.298828 L 107.09961 30.599609 L 81.298828 152 L 137.5 152 L 134.19922 290.90039 L 148.90039 234.79883 L 193.09961 234.79883 L 196.19922 223.90039 L 151.59961 223.90039 L 161.29883 185.40039 L 206 185.40039 L 209.19922 174.5 L 164 174.5 L 173.69922 136 L 219.5 136 L 222.40039 125.09961 L 107.40039 125.09961 L 116.59961 90.599609 L 162.40039 90.599609 L 165.59961 79.699219 L 119.5 79.699219 L 129.79883 41.199219 L 175.79883 41.199219 L 178.69922 30.298828 L 135.90039 30.298828 z " /><path
   style="fill:#e5e5e5;fill-opacity:1"
   id="path6161"
   d="M 180.7832 42.058594 L 179.70117 46.099609 L 133.70117 46.099609 L 126.09961 74.599609 L 172.30078 74.599609 L 166.09961 95.5 L 120.40039 95.5 L 113.80078 120 L 229.09961 120 L 223.5 140.90039 L 177.70117 140.90039 L 170.5 169.40039 L 216 169.40039 L 209.80078 190.30078 L 165.20117 190.30078 L 158 218.80078 L 202.80078 218.80078 L 199.80078 229.25195 A 102.5 102.5 0 0 0 252.5 139.80078 A 102.5 102.5 0 0 0 180.7832 42.058594 z M 97.583984 51.847656 A 102.5 102.5 0 0 0 47.5 139.80078 A 102.5 102.5 0 0 0 130.50977 240.38867 L 132.5 156.90039 L 75.099609 156.90039 L 97.583984 51.847656 z M 152.70117 239.69922 L 152.04297 242.22852 A 102.5 102.5 0 0 0 172.36328 239.69922 L 152.70117 239.69922 z " />



</svg>